<svg width="34" height="34" viewBox="0 0 34 34" fill="none" xmlns="http://www.w3.org/2000/svg">
<path d="M12.4809 2.83325L7.35254 7.97575M21.5192 2.83325L26.6475 7.97575" stroke="#143601" stroke-width="1.5" stroke-miterlimit="10" stroke-linecap="round" stroke-linejoin="round"/>
<path d="M2.8335 11.1209C2.8335 8.5001 4.236 8.2876 5.9785 8.2876H28.0218C29.7643 8.2876 31.1668 8.5001 31.1668 11.1209C31.1668 14.1668 29.7643 13.9543 28.0218 13.9543H5.9785C4.236 13.9543 2.8335 14.1668 2.8335 11.1209Z" stroke="#143601" stroke-width="1.5"/>
<path d="M13.8268 19.8334V24.8626M20.3435 19.8334V24.8626M4.9585 14.1667L6.956 26.4067C7.40933 29.1551 8.50016 31.1667 12.5518 31.1667H21.0943C25.5002 31.1667 26.1518 29.2401 26.6618 26.5767L29.0418 14.1667" stroke="#143601" stroke-width="1.5" stroke-linecap="round"/>
</svg>
