<svg width="27" height="26" viewBox="0 0 27 26" fill="none" xmlns="http://www.w3.org/2000/svg">
<path d="M9.43121 2.38525V5.47616M17.9443 2.38525V5.47616M4.64258 9.6901H22.733M24.3292 19.9004C24.3292 20.6731 24.1057 21.4046 23.712 22.0228C23.3368 22.6333 22.804 23.1386 22.1658 23.4891C21.5277 23.8396 20.8063 24.0231 20.0726 24.0216C18.9978 24.0216 18.0188 23.6404 17.2739 22.9913C16.944 22.7234 16.6567 22.3937 16.4332 22.0228C16.0282 21.3845 15.8145 20.6496 15.816 19.9004C15.816 17.6234 17.7209 15.7792 20.0726 15.7792C21.3496 15.7792 22.4882 16.3253 23.265 17.1804C23.9494 17.9317 24.3277 18.8987 24.3292 19.9004Z" stroke="#31572C" stroke-width="1.5" stroke-miterlimit="10" stroke-linecap="round" stroke-linejoin="round"/>
<path d="M18.4121 19.9003L19.4656 20.9203L21.7322 18.8906" stroke="#31572C" stroke-width="1.5" stroke-linecap="round" stroke-linejoin="round"/>
<path d="M23.2649 9.08218V17.1804C22.488 16.3252 21.3494 15.7791 20.0724 15.7791C17.7207 15.7791 15.8159 17.6234 15.8159 19.9004C15.8159 20.6731 16.0394 21.4046 16.4331 22.0228C16.6566 22.3937 16.9439 22.7234 17.2738 22.9913H9.43105C5.70656 22.9913 4.11035 20.9307 4.11035 17.8398V9.08218C4.11035 5.99127 5.70656 3.93066 9.43105 3.93066H17.9442C21.6687 3.93066 23.2649 5.99127 23.2649 9.08218Z" stroke="#31572C" stroke-width="1.5" stroke-miterlimit="10" stroke-linecap="round" stroke-linejoin="round"/>
<path d="M13.6825 14.4399H13.6932M9.74414 14.4399H9.75478M9.74414 17.5309H9.75478" stroke="#31572C" stroke-width="2" stroke-linecap="round" stroke-linejoin="round"/>
</svg>
