<svg width="57" height="69" viewBox="0 0 57 69" fill="none" xmlns="http://www.w3.org/2000/svg">
<path d="M55.7693 14.5587C45.7573 13.4587 35.6852 12.892 25.6431 12.892C19.69 12.892 13.7369 13.2253 7.78382 13.892L1.65033 14.5587M18.1867 11.192L18.8481 6.82533C19.3292 3.65866 19.69 1.29199 24.7712 1.29199H32.6485C37.7297 1.29199 38.1205 3.79199 38.5715 6.85866L39.233 11.192M49.3051 25.092L47.3508 58.6587C47.0201 63.892 46.7495 67.9587 38.3611 67.9587H19.0586C10.6702 67.9587 10.3996 63.892 10.0688 58.6587L8.11454 25.092M23.6888 49.6253H33.7008M21.1933 36.292H36.2264" stroke="black" stroke-width="1.5" stroke-linecap="round" stroke-linejoin="round"/>
</svg>
