<svg width="34" height="34" viewBox="0 0 34 34" fill="none" xmlns="http://www.w3.org/2000/svg">
<path d="M4.26416 15.895V22.2559C4.26416 28.6167 6.81416 31.1667 13.175 31.1667H20.8108C27.1717 31.1667 29.7217 28.6167 29.7217 22.2559V15.895" stroke="black" stroke-width="1.5" stroke-linecap="round" stroke-linejoin="round"/>
<path d="M17 16.9999C19.5925 16.9999 21.505 14.8891 21.25 12.2966L20.315 2.83325H13.6992L12.75 12.2966C12.495 14.8891 14.4075 16.9999 17 16.9999Z" stroke="black" stroke-width="1.5" stroke-linecap="round" stroke-linejoin="round"/>
<path d="M25.9392 16.9999C28.8008 16.9999 30.8975 14.6766 30.6142 11.8291L30.2175 7.93325C29.7075 4.24992 28.2908 2.83325 24.5792 2.83325H20.2584L21.25 12.7641C21.4908 15.1016 23.6017 16.9999 25.9392 16.9999ZM7.99002 16.9999C10.3275 16.9999 12.4383 15.1016 12.665 12.7641L12.9767 9.63325L13.6567 2.83325H9.33585C5.62418 2.83325 4.20752 4.24992 3.69752 7.93325L3.31502 11.8291C3.03168 14.6766 5.12835 16.9999 7.99002 16.9999ZM17 24.0833C14.6342 24.0833 13.4583 25.2591 13.4583 27.6249V31.1666H20.5417V27.6249C20.5417 25.2591 19.3658 24.0833 17 24.0833Z" stroke="#143601" stroke-width="1.5" stroke-linecap="round" stroke-linejoin="round"/>
</svg>
