<svg width="510" height="321" viewBox="0 0 510 321" fill="none" xmlns="http://www.w3.org/2000/svg">
<g clip-path="url(#clip0_156_1421)">
<path d="M596.493 281.473L576.581 239.196C556.671 197.315 516.844 112.164 477.425 96.8191C438.002 80.8781 398.986 134.743 359.934 182.352C320.886 230.557 281.801 272.506 242.474 273.049C203.144 272.995 163.572 231.535 124.21 226.12C84.8511 221.101 45.7081 253.121 26.1366 269.131L6.56512 285.14L4.8955 -0.835226L24.5597 -0.957462C44.224 -1.0797 83.5525 -1.32417 122.881 -1.56864C162.21 -1.81311 201.538 -2.05758 240.867 -2.30205C280.195 -2.54653 319.524 -2.791 358.852 -3.03547C398.181 -3.27994 437.509 -3.52441 476.838 -3.76888C516.166 -4.01335 555.495 -4.25783 575.159 -4.38006L594.823 -4.5023L596.493 281.473Z" fill="#73A942"/>
</g>
<defs>
<clipPath id="clip0_156_1421">
<rect width="508.155" height="317.756" fill="white" transform="matrix(-0.999981 0.00621602 -0.00583824 -0.999983 510 317.751)"/>
</clipPath>
</defs>
</svg>
