<svg width="506" height="286" viewBox="0 0 506 286" fill="none" xmlns="http://www.w3.org/2000/svg">
<path d="M592.493 281.473L572.581 239.196C552.671 197.315 512.844 112.164 473.425 96.819C434.002 80.8781 394.986 134.743 355.934 182.352C316.886 230.557 277.801 272.506 238.474 273.049C199.144 272.995 159.572 231.535 120.21 226.12C80.8511 221.101 41.7081 253.121 22.1366 269.131L2.56513 285.14L0.895506 -0.835226L20.5597 -0.957462C40.224 -1.0797 79.5525 -1.32417 118.881 -1.56864C158.21 -1.81311 197.538 -2.05758 236.867 -2.30205C276.195 -2.54653 315.524 -2.791 354.852 -3.03547C394.181 -3.27994 433.509 -3.52441 472.838 -3.76888C512.166 -4.01335 551.495 -4.25783 571.159 -4.38006L590.823 -4.5023L592.493 281.473Z" fill="#73A942"/>
</svg>
