<svg width="1476" height="244" viewBox="0 0 1476 244" fill="none" xmlns="http://www.w3.org/2000/svg">
<path d="M1476.82 55.3796L1446 90.101C1415.17 125.194 1353.52 194.08 1291.66 199.574C1229.8 204.696 1167.73 145.498 1105.84 140.783C1043.95 135.695 982.236 186.019 920.457 215.644C858.68 245.827 796.834 255.311 734.862 226.093C672.888 196.317 610.786 127.838 548.893 122.751C487.001 118.035 425.32 177.64 363.46 182.762C301.602 188.256 239.562 138.34 177.589 109.121C115.615 79.3452 53.7084 70.2671 22.7531 65.0784L-8.20086 60.2609L-8.3959 0.859751L22.5419 0.758056C53.4798 0.65636 115.356 0.452969 177.232 0.249578C239.107 0.0461869 300.983 -0.157204 362.859 -0.360595C424.735 -0.563986 486.611 -0.767377 548.487 -0.970768C610.363 -1.17416 672.238 -1.37755 734.114 -1.58094C795.99 -1.78433 857.866 -1.98772 919.742 -2.19111C981.618 -2.3945 1043.49 -2.5979 1105.37 -2.80129C1167.25 -3.00468 1229.12 -3.20807 1291 -3.41146C1352.87 -3.61485 1414.75 -3.81824 1445.69 -3.91994L1476.62 -4.02163L1476.82 55.3796Z" fill="#538D22"/>
</svg>
