<svg width="35" height="32" viewBox="0 0 35 32" fill="none" xmlns="http://www.w3.org/2000/svg">
<path d="M24.9183 27.8828C24.6914 27.8836 24.4676 27.8337 24.2657 27.7371L17.0295 24.2002L9.79335 27.7371C9.55838 27.8524 9.29346 27.9039 9.0287 27.8857C8.76394 27.8675 8.50997 27.7803 8.29565 27.634C8.08134 27.4877 7.91528 27.2882 7.81634 27.0582C7.71741 26.8282 7.68958 26.5769 7.73602 26.3329L9.15487 18.875L3.3092 13.5763C3.12681 13.4064 2.99743 13.1933 2.93494 12.9599C2.87245 12.7265 2.87921 12.4817 2.95448 12.2516C3.03672 12.0162 3.18799 11.807 3.39113 11.6478C3.59428 11.4885 3.84116 11.3857 4.10375 11.3508L12.1912 10.2513L15.7525 3.45576C15.8687 3.23179 16.0501 3.04291 16.276 2.91075C16.5018 2.77859 16.763 2.7085 17.0295 2.7085C17.296 2.7085 17.5572 2.77859 17.783 2.91075C18.0089 3.04291 18.1903 3.23179 18.3065 3.45576L21.9104 10.2381L29.9978 11.3376C30.2604 11.3724 30.5073 11.4753 30.7104 11.6345C30.9136 11.7937 31.0649 12.0029 31.1471 12.2384C31.2224 12.4684 31.2291 12.7133 31.1666 12.9467C31.1041 13.18 30.9748 13.3931 30.7924 13.563L24.9467 18.8617L26.3656 26.3197C26.4162 26.568 26.3897 26.8247 26.2891 27.0594C26.1886 27.2941 26.0181 27.4971 25.798 27.6443C25.5411 27.8124 25.2317 27.8963 24.9183 27.8828Z" fill="#F8DB43"/>
</svg>
