<svg width="36" height="67" viewBox="0 0 36 67" fill="none" xmlns="http://www.w3.org/2000/svg">
<path d="M16.2445 53.375V13.875C16.2445 10.125 15.4011 8.625 13.2701 8.625H7.89838C5.76745 8.625 4.92395 10.125 4.92395 13.875V53.375C4.92395 57.125 5.76745 58.625 7.89838 58.625H13.2701C15.4011 58.625 16.2445 57.125 16.2445 53.375ZM31.5607 53.375V13.875C31.5607 10.125 30.7172 8.625 28.5862 8.625H23.2145C21.0983 8.625 20.2401 10.125 20.2401 13.875V53.375C20.2401 57.125 21.0835 58.625 23.2145 58.625H28.5862C30.7172 58.625 31.5607 57.125 31.5607 53.375Z" stroke="black" stroke-width="1.5" stroke-linecap="round" stroke-linejoin="round"/>
</svg>
