<svg width="39" height="38" viewBox="0 0 39 38" fill="none" xmlns="http://www.w3.org/2000/svg">
<path d="M37.7002 37L34.1002 33.4M18.8002 35.2C21.0458 35.2 23.2694 34.7577 25.3441 33.8983C27.4187 33.039 29.3038 31.7794 30.8917 30.1915C32.4796 28.6036 33.7392 26.7186 34.5985 24.6439C35.4579 22.5692 35.9002 20.3456 35.9002 18.1C35.9002 15.8544 35.4579 13.6308 34.5985 11.5561C33.7392 9.48145 32.4796 7.59636 30.8917 6.00847C29.3038 4.42059 27.4187 3.16102 25.3441 2.30166C23.2694 1.4423 21.0458 1 18.8002 1C14.265 1 9.91554 2.8016 6.70867 6.00847C3.5018 9.21535 1.7002 13.5648 1.7002 18.1C1.7002 22.6352 3.5018 26.9847 6.70867 30.1915C9.91554 33.3984 14.265 35.2 18.8002 35.2Z" stroke="white" stroke-width="1.5" stroke-linecap="round" stroke-linejoin="round"/>
</svg>
