<svg width="48" height="48" viewBox="0 0 48 48" fill="none" xmlns="http://www.w3.org/2000/svg">
<path d="M37.7571 13.6894C37.4218 13.1084 36.9416 12.6243 36.3634 12.2842C35.7852 11.944 35.1288 11.7596 34.458 11.7488H9.61805L8.49248 7.36298C8.37876 6.93961 8.12505 6.56722 7.77266 6.30645C7.42027 6.04569 6.98998 5.91191 6.55186 5.92692H2.67061C2.15592 5.92692 1.66231 6.13138 1.29838 6.49532C0.934439 6.85925 0.72998 7.35286 0.72998 7.86754C0.72998 8.38223 0.934439 8.87584 1.29838 9.23977C1.66231 9.60371 2.15592 9.80817 2.67061 9.80817H5.07698L10.4331 29.719C10.5468 30.1424 10.8005 30.5147 11.1529 30.7755C11.5053 31.0363 11.9356 31.1701 12.3737 31.155H29.8394C30.1977 31.154 30.5488 31.0537 30.8537 30.8653C31.1585 30.6769 31.4053 30.4077 31.5665 30.0877L37.9318 17.3572C38.2077 16.7789 38.3361 16.1413 38.3056 15.5013C38.2751 14.8614 38.0867 14.2389 37.7571 13.6894ZM28.6362 27.2738H13.8486L10.6854 15.63H34.458L28.6362 27.2738Z" fill="white"/>
<path d="M11.4031 40.857C13.0108 40.857 14.3141 39.5538 14.3141 37.9461C14.3141 36.3384 13.0108 35.0352 11.4031 35.0352C9.79546 35.0352 8.49219 36.3384 8.49219 37.9461C8.49219 39.5538 9.79546 40.857 11.4031 40.857Z" fill="white"/>
<path d="M30.8084 40.857C32.4161 40.857 33.7193 39.5538 33.7193 37.9461C33.7193 36.3384 32.4161 35.0352 30.8084 35.0352C29.2007 35.0352 27.8975 36.3384 27.8975 37.9461C27.8975 39.5538 29.2007 40.857 30.8084 40.857Z" fill="white"/>
</svg>
