<svg width="34" height="34" viewBox="0 0 34 34" fill="none" xmlns="http://www.w3.org/2000/svg">
<path d="M29.1694 31.1668C29.1694 25.6843 23.7152 21.2502 17.0002 21.2502C10.2852 21.2502 4.83105 25.6843 4.83105 31.1668M17.0002 17.0002C18.8788 17.0002 20.6805 16.2539 22.0089 14.9255C23.3373 13.5971 24.0836 11.7954 24.0836 9.91683C24.0836 8.03821 23.3373 6.23654 22.0089 4.90816C20.6805 3.57977 18.8788 2.8335 17.0002 2.8335C15.1216 2.8335 13.3199 3.57977 11.9915 4.90816C10.6632 6.23654 9.91689 8.03821 9.91689 9.91683C9.91689 11.7954 10.6632 13.5971 11.9915 14.9255C13.3199 16.2539 15.1216 17.0002 17.0002 17.0002Z" stroke="#143601" stroke-width="1.5" stroke-linecap="round" stroke-linejoin="round"/>
</svg>
