<svg width="52" height="48" viewBox="0 0 52 48" fill="none" xmlns="http://www.w3.org/2000/svg">
<path d="M27.325 46.4791H11.525C3.625 46.4791 1 40.894 1 35.2823V12.8887C1 4.48445 3.625 1.69189 11.525 1.69189H27.325C35.225 1.69189 37.85 4.48445 37.85 12.8887V35.2823C37.85 43.6866 35.2 46.4791 27.325 46.4791Z" stroke="white" stroke-width="1.5" stroke-linecap="round" stroke-linejoin="round"/>
<path d="M44.8 37.6492L37.85 32.463V15.6811L44.8 10.495C48.2 7.96836 51 9.51091 51 13.9524V34.2184C51 38.6599 48.2 40.2024 44.8 37.6492ZM24.75 21.4258C25.7446 21.4258 26.6984 21.0055 27.4017 20.2574C28.1049 19.5092 28.5 18.4945 28.5 17.4364C28.5 16.3784 28.1049 15.3637 27.4017 14.6155C26.6984 13.8674 25.7446 13.4471 24.75 13.4471C23.7554 13.4471 22.8016 13.8674 22.0983 14.6155C21.3951 15.3637 21 16.3784 21 17.4364C21 18.4945 21.3951 19.5092 22.0983 20.2574C22.8016 21.0055 23.7554 21.4258 24.75 21.4258Z" stroke="white" stroke-width="1.5" stroke-linecap="round" stroke-linejoin="round"/>
</svg>
