<svg width="49" height="50" viewBox="0 0 49 50" fill="none" xmlns="http://www.w3.org/2000/svg">
<path d="M42.7434 23.3158V32.5059C42.7434 41.6959 39.1083 45.3801 29.9699 45.3801H19.024C17.8462 45.3801 16.7699 45.3187 15.7748 45.1755M6.25049 32.117V23.3158M24.5071 24.9123C28.2234 24.9123 30.9649 21.8626 30.5994 18.117L29.2388 4.44446H19.7551L18.3945 18.117C18.029 21.8626 20.7908 24.9123 24.5071 24.9123Z" stroke="#73A942" stroke-width="1.5" stroke-linecap="round" stroke-linejoin="round"/>
<path d="M37.3009 24.9123C41.4031 24.9123 44.4086 21.5556 44.0025 17.4415L43.4339 11.8129C42.7028 6.49124 40.672 4.44446 35.3514 4.44446H29.1576L30.5791 18.7924C30.9446 22.1696 33.9502 24.9123 37.3009 24.9123ZM11.5914 24.9123C14.9422 24.9123 17.968 22.1696 18.2929 18.7924L18.7397 14.269L19.7145 4.44446H13.5206C8.20002 4.44446 6.16925 6.49124 5.43818 11.8129L4.86956 17.4415C4.46341 21.5556 7.48925 24.9123 11.5914 24.9123Z" stroke="#73A942" stroke-width="1.5" stroke-linecap="round" stroke-linejoin="round"/>
<path d="M13.2568 39.1988H7.20514M10.231 36.2105V42.3304M18.3541 39.2397C18.3541 40.7748 17.9276 42.2281 17.1762 43.4561C16.7904 44.1111 16.3233 44.7047 15.775 45.1754C15.7141 45.2573 15.6531 45.3187 15.5719 45.3801C14.1504 46.6696 12.2821 47.4269 10.231 47.4269C7.75345 47.4269 5.53991 46.3012 4.07776 44.5409C4.03714 44.4795 3.97622 44.4386 3.9356 44.3772C3.69191 44.0906 3.46853 43.7836 3.28576 43.4561C2.53437 42.2281 2.10791 40.7748 2.10791 39.2397C2.10791 36.6608 3.28576 34.3479 5.15406 32.8538C5.49929 32.5672 5.86483 32.3216 6.25068 32.1169C7.42853 31.4415 8.78914 31.0526 10.231 31.0526C12.2618 31.0526 14.0894 31.7895 15.511 33.038C15.7547 33.2222 15.9781 33.4474 16.1811 33.6725C17.5214 35.1462 18.3541 37.0906 18.3541 39.2397Z" stroke="#73A942" stroke-width="1.5" stroke-miterlimit="10" stroke-linecap="round" stroke-linejoin="round"/>
</svg>
