<svg width="34" height="34" viewBox="0 0 34 34" fill="none" xmlns="http://www.w3.org/2000/svg">
<path d="M12.2853 20.3008C12.2853 22.1283 13.6878 23.6017 15.4303 23.6017H18.9862C20.502 23.6017 21.7345 22.3125 21.7345 20.7258C21.7345 18.9975 20.9837 18.3883 19.8645 17.9917L14.1553 16.0083C13.0362 15.6117 12.2853 15.0025 12.2853 13.2742C12.2853 11.6875 13.5178 10.3983 15.0337 10.3983H18.5895C20.332 10.3983 21.7345 11.8717 21.7345 13.6992M17 8.5V25.5" stroke="#143601" stroke-width="1.5" stroke-linecap="round" stroke-linejoin="round"/>
<path d="M21.25 31.1666H12.75C5.66665 31.1666 2.83331 28.3333 2.83331 21.2499V12.7499C2.83331 5.66659 5.66665 2.83325 12.75 2.83325H21.25C28.3333 2.83325 31.1666 5.66659 31.1666 12.7499V21.2499C31.1666 28.3333 28.3333 31.1666 21.25 31.1666Z" stroke="#143601" stroke-width="1.5" stroke-linecap="round" stroke-linejoin="round"/>
</svg>
