<svg width="34" height="34" viewBox="0 0 34 34" fill="none" xmlns="http://www.w3.org/2000/svg">
<path d="M31.1668 12.7498V21.2498C31.1668 24.7915 30.4585 27.2707 28.8718 28.8715L19.8335 19.8332L30.7843 8.88232C31.0393 10.0015 31.1668 11.2765 31.1668 12.7498Z" stroke="#143601" stroke-width="1.5" stroke-linecap="round" stroke-linejoin="round"/>
<path d="M30.7843 8.88266L8.88266 30.7843C4.6185 29.8068 2.8335 26.8602 2.8335 21.2502V12.7502C2.8335 5.66683 5.66683 2.8335 12.7502 2.8335H21.2502C26.8602 2.8335 29.8068 4.6185 30.7843 8.88266Z" stroke="#143601" stroke-width="1.5" stroke-linecap="round" stroke-linejoin="round"/>
<path d="M28.8715 28.8718C27.2707 30.4585 24.7915 31.1668 21.2498 31.1668H12.7498C11.2765 31.1668 10.0015 31.0393 8.88232 30.7843L19.8332 19.8335L28.8715 28.8718Z" stroke="#143601" stroke-width="1.5" stroke-linecap="round" stroke-linejoin="round"/>
<path d="M8.84013 11.305C9.80346 7.15419 16.0368 7.15419 17.0001 11.305C17.5526 13.7417 16.0226 15.81 14.6768 17.085C14.2028 17.5354 13.574 17.7866 12.9201 17.7866C12.2663 17.7866 11.6374 17.5354 11.1635 17.085C9.81763 15.81 8.27346 13.7417 8.84013 11.305Z" stroke="#143601" stroke-width="1.5"/>
<path d="M12.8848 12.3252H12.8975" stroke="#143601" stroke-width="2" stroke-linecap="round" stroke-linejoin="round"/>
</svg>
