<svg width="37" height="52" viewBox="0 0 37 52" fill="none" xmlns="http://www.w3.org/2000/svg">
<path d="M18.4 23.3785C18.15 23.3535 17.85 23.3535 17.575 23.3785C14.7056 23.281 11.9867 22.0706 9.99412 20.0034C8.00159 17.9362 6.8919 15.1746 6.90005 12.3035C6.90005 6.17846 11.85 1.20346 18 1.20346C19.4561 1.1772 20.903 1.43798 22.2583 1.97091C23.6135 2.50385 24.8505 3.2985 25.8987 4.3095C26.9468 5.32049 27.7856 6.52804 28.367 7.86319C28.9485 9.19833 29.2613 10.6349 29.2875 12.091C29.3138 13.547 29.053 14.9939 28.5201 16.3492C27.9872 17.7044 27.1925 18.9414 26.1815 19.9896C25.1705 21.0377 23.963 21.8765 22.6278 22.4579C21.2927 23.0394 19.8561 23.3522 18.4 23.3785ZM5.90005 32.6035C-0.149951 36.6535 -0.149951 43.2535 5.90005 47.2785C12.775 51.8785 24.05 51.8785 30.925 47.2785C36.975 43.2285 36.975 36.6285 30.925 32.6035C24.075 28.0285 12.8 28.0285 5.90005 32.6035Z" stroke="white" stroke-width="1.5" stroke-linecap="round" stroke-linejoin="round"/>
</svg>
